<svg xmlns="http://www.w3.org/2000/svg" width="20" height="30" fill="none" viewBox="0 0 24 36">
  <path fill="#614C8E" d="M12 18.576a9.288 9.288 0 009.288-9.288C21.288 4.16 17.129 0 12 0 6.87 0 2.713 4.16 2.713 9.288A9.288 9.288 0 0012 18.576zM23.894 27.525c-.414-2.484-2.52-5.918-4.03-7.525-.408-.435-1.116-.254-1.365-.1A12.34 12.34 0 0112 21.75c-2.383 0-4.606-.681-6.499-1.849-.249-.154-.958-.335-1.366.1C2.626 21.607.52 25.04.105 27.525-.912 33.64 5.62 35.85 12 35.85s12.913-2.21 11.894-8.325z"/>
</svg>
