<svg xmlns="http://www.w3.org/2000/svg" width="31" height="30" fill="none" viewBox="0 0 31 30">
  <g clip-path="url(#clip0_104_42)">
    <path fill="#998CB5" d="M11.625 0v10.125c0 .939.25 1.752.725 2.354 1.06 1.345 3.158 1.346 4.602-.058l.316-.32c.532-.549.826-.851 1.712-.851 1.218 0 2.978 1.335 2.978 3.75s-1.76 3.75-2.978 3.75c-.888 0-1.18-.302-1.712-.851l-.312-.317c-.729-.708-1.604-1.098-2.466-1.098-1.38 0-2.865 1.061-2.865 3.391V30H6.458C2.891 30 0 27.201 0 23.75V6.25C0 2.799 2.89 0 6.458 0h5.167zm2.583 0v10.125c0 .864.415 1.035 1.176.266.633-.653 1.591-1.641 3.596-1.641 2.685 0 5.562 2.511 5.562 6.25s-2.877 6.25-5.562 6.25c-2.006 0-2.963-.988-3.596-1.641-.811-.82-1.176-.442-1.176.266V30h10.334C28.109 30 31 27.201 31 23.75V6.25C31 2.799 28.11 0 24.542 0H14.208z"/>
  </g>
  <defs>
    <clipPath id="clip0_104_42">
      <path fill="#fff" d="M0 0h31v30H0z"/>
    </clipPath>
  </defs>
</svg>
