<svg xmlns="http://www.w3.org/2000/svg" width="24" height="24" fill="none" viewBox="0 0 24 24">
  <path fill="#998CB5" d="M0 3.49v17.02h24V3.49H0zm3.353 4.35H2.248a.358.358 0 01-.358-.358V5.467c0-.197.16-.357.358-.357h1.105c.197 0 .357.16.357.357v2.015c0 .197-.16.357-.357.357zm-1.105 2.559h1.105c.197 0 .357.16.357.358v2.014c0 .198-.16.358-.357.358H2.248a.358.358 0 01-.358-.358v-2.014c0-.198.16-.358.358-.358zm0 5.761h1.105c.197 0 .357.16.357.358v2.015c0 .197-.16.357-.357.357H2.248a.358.358 0 01-.358-.357v-2.015c0-.197.16-.358.358-.358zm7.08-.839V8.68c0-.276.297-.448.536-.31l5.753 3.321a.358.358 0 010 .62L9.864 15.63a.358.358 0 01-.537-.31zM21.751 7.84h-1.105a.358.358 0 01-.357-.357V5.467c0-.197.16-.357.357-.357h1.105c.198 0 .358.16.358.357v2.015c0 .197-.16.357-.358.357zm-1.105 2.56h1.105c.198 0 .358.16.358.358v2.014c0 .198-.16.358-.358.358h-1.105a.358.358 0 01-.357-.358v-2.014c0-.198.16-.358.357-.358zm0 5.761h1.105c.198 0 .358.16.358.358v2.015c0 .197-.16.357-.358.357h-1.105a.358.358 0 01-.357-.357v-2.015c0-.197.16-.358.357-.358z"/>
</svg>
